<mxfile host="app.diagrams.net" modified="2021-08-30T06:45:27.501Z" agent="5.0 (X11; Linux x86_64) AppleWebKit/537.36 (KHTML, like Gecko) Chrome/92.0.4515.159 Safari/537.36" etag="ZFbBRa6bdbCVoz8CYi8o" version="15.0.3" type="github">
  <diagram name="Page-1" id="9361dd3d-8414-5efd-6122-117bd74ce7a7">
    <mxGraphModel dx="1185" dy="5034" grid="1" gridSize="10" guides="1" tooltips="1" connect="1" arrows="1" fold="1" page="0" pageScale="1.5" pageWidth="826" pageHeight="1169" background="none" math="0" shadow="0">
      <root>
        <mxCell id="0" />
        <mxCell id="1" parent="0" />
        <mxCell id="ok139ALbJn9GpQchz6-Z-90" value="APP" style="swimlane;whiteSpace=wrap" vertex="1" parent="1">
          <mxGeometry x="300" y="-4270" width="280" height="570" as="geometry" />
        </mxCell>
        <mxCell id="ok139ALbJn9GpQchz6-Z-91" value="" style="ellipse;shape=startState;fillColor=#000000;strokeColor=#ff0000;" vertex="1" parent="ok139ALbJn9GpQchz6-Z-90">
          <mxGeometry x="100" y="40" width="30" height="30" as="geometry" />
        </mxCell>
        <mxCell id="ok139ALbJn9GpQchz6-Z-92" value="" style="edgeStyle=elbowEdgeStyle;elbow=horizontal;verticalAlign=bottom;endArrow=open;endSize=8;strokeColor=#FF0000;endFill=1;rounded=0" edge="1" parent="ok139ALbJn9GpQchz6-Z-90" source="ok139ALbJn9GpQchz6-Z-91" target="ok139ALbJn9GpQchz6-Z-93">
          <mxGeometry x="100" y="40" as="geometry">
            <mxPoint x="115" y="110" as="targetPoint" />
          </mxGeometry>
        </mxCell>
        <mxCell id="ok139ALbJn9GpQchz6-Z-93" value="idle" style="" vertex="1" parent="ok139ALbJn9GpQchz6-Z-90">
          <mxGeometry x="60" y="110" width="110" height="50" as="geometry" />
        </mxCell>
        <mxCell id="ok139ALbJn9GpQchz6-Z-94" value="user action" style="" vertex="1" parent="ok139ALbJn9GpQchz6-Z-90">
          <mxGeometry x="60" y="220" width="110" height="50" as="geometry" />
        </mxCell>
        <mxCell id="ok139ALbJn9GpQchz6-Z-95" value="" style="endArrow=open;strokeColor=#FF0000;endFill=1;rounded=0;edgeStyle=orthogonalEdgeStyle;" edge="1" parent="ok139ALbJn9GpQchz6-Z-90" source="ok139ALbJn9GpQchz6-Z-93" target="ok139ALbJn9GpQchz6-Z-94">
          <mxGeometry relative="1" as="geometry" />
        </mxCell>
        <mxCell id="ok139ALbJn9GpQchz6-Z-96" value="post command" style="" vertex="1" parent="ok139ALbJn9GpQchz6-Z-90">
          <mxGeometry x="60" y="325" width="110" height="50" as="geometry" />
        </mxCell>
        <mxCell id="ok139ALbJn9GpQchz6-Z-97" value="" style="endArrow=open;strokeColor=#FF0000;endFill=1;rounded=0;edgeStyle=orthogonalEdgeStyle;" edge="1" parent="ok139ALbJn9GpQchz6-Z-90" source="ok139ALbJn9GpQchz6-Z-94" target="ok139ALbJn9GpQchz6-Z-96">
          <mxGeometry relative="1" as="geometry" />
        </mxCell>
        <mxCell id="ok139ALbJn9GpQchz6-Z-98" value="" style="edgeStyle=elbowEdgeStyle;elbow=horizontal;strokeColor=#FF0000;endArrow=open;endFill=1;rounded=0" edge="1" parent="ok139ALbJn9GpQchz6-Z-90" source="ok139ALbJn9GpQchz6-Z-96" target="ok139ALbJn9GpQchz6-Z-93">
          <mxGeometry width="100" height="100" relative="1" as="geometry">
            <mxPoint x="160" y="290" as="sourcePoint" />
            <mxPoint x="260" y="190" as="targetPoint" />
            <Array as="points">
              <mxPoint x="30" y="250" />
            </Array>
          </mxGeometry>
        </mxCell>
        <mxCell id="ok139ALbJn9GpQchz6-Z-99" value="支付中间件" style="swimlane;whiteSpace=wrap" vertex="1" parent="1">
          <mxGeometry x="580" y="-4270" width="280" height="570" as="geometry" />
        </mxCell>
        <mxCell id="ok139ALbJn9GpQchz6-Z-100" value="" style="ellipse;shape=startState;fillColor=#000000;strokeColor=#ff0000;" vertex="1" parent="ok139ALbJn9GpQchz6-Z-99">
          <mxGeometry x="60" y="40" width="30" height="30" as="geometry" />
        </mxCell>
        <mxCell id="ok139ALbJn9GpQchz6-Z-101" value="" style="edgeStyle=elbowEdgeStyle;elbow=horizontal;verticalAlign=bottom;endArrow=open;endSize=8;strokeColor=#FF0000;endFill=1;rounded=0" edge="1" parent="ok139ALbJn9GpQchz6-Z-99" source="ok139ALbJn9GpQchz6-Z-100" target="ok139ALbJn9GpQchz6-Z-102">
          <mxGeometry x="40" y="20" as="geometry">
            <mxPoint x="55" y="90" as="targetPoint" />
          </mxGeometry>
        </mxCell>
        <mxCell id="ok139ALbJn9GpQchz6-Z-102" value="idle" style="" vertex="1" parent="ok139ALbJn9GpQchz6-Z-99">
          <mxGeometry x="20" y="110" width="110" height="50" as="geometry" />
        </mxCell>
        <mxCell id="ok139ALbJn9GpQchz6-Z-103" value="check for &#xa;new commands" style="" vertex="1" parent="ok139ALbJn9GpQchz6-Z-99">
          <mxGeometry x="20" y="220" width="110" height="50" as="geometry" />
        </mxCell>
        <mxCell id="ok139ALbJn9GpQchz6-Z-104" value="" style="endArrow=open;strokeColor=#FF0000;endFill=1;rounded=0;edgeStyle=orthogonalEdgeStyle;" edge="1" parent="ok139ALbJn9GpQchz6-Z-99" source="ok139ALbJn9GpQchz6-Z-102" target="ok139ALbJn9GpQchz6-Z-103">
          <mxGeometry relative="1" as="geometry" />
        </mxCell>
        <mxCell id="ok139ALbJn9GpQchz6-Z-105" value="command queue" style="" vertex="1" parent="ok139ALbJn9GpQchz6-Z-99">
          <mxGeometry x="20" y="325" width="110" height="50" as="geometry" />
        </mxCell>
        <mxCell id="ok139ALbJn9GpQchz6-Z-106" value="" style="endArrow=open;strokeColor=#FF0000;endFill=1;rounded=0;edgeStyle=orthogonalEdgeStyle;" edge="1" parent="ok139ALbJn9GpQchz6-Z-99" source="ok139ALbJn9GpQchz6-Z-103" target="ok139ALbJn9GpQchz6-Z-105">
          <mxGeometry relative="1" as="geometry" />
        </mxCell>
        <mxCell id="ok139ALbJn9GpQchz6-Z-107" value="queue empty" style="rhombus;fillColor=#ffffc0;strokeColor=#ff0000;" vertex="1" parent="ok139ALbJn9GpQchz6-Z-99">
          <mxGeometry x="150" y="225" width="80" height="40" as="geometry" />
        </mxCell>
        <mxCell id="ok139ALbJn9GpQchz6-Z-108" value="yes" style="edgeStyle=elbowEdgeStyle;elbow=horizontal;align=left;verticalAlign=bottom;endArrow=open;endSize=8;strokeColor=#FF0000;exitX=0.5;exitY=0;endFill=1;rounded=0;entryX=0.75;entryY=0.5;entryPerimeter=0" edge="1" parent="ok139ALbJn9GpQchz6-Z-99" source="ok139ALbJn9GpQchz6-Z-107" target="ok139ALbJn9GpQchz6-Z-111">
          <mxGeometry x="-1" relative="1" as="geometry">
            <mxPoint x="160" y="150" as="targetPoint" />
            <Array as="points">
              <mxPoint x="190" y="180" />
            </Array>
          </mxGeometry>
        </mxCell>
        <mxCell id="ok139ALbJn9GpQchz6-Z-109" value="no" style="edgeStyle=elbowEdgeStyle;elbow=horizontal;align=left;verticalAlign=top;endArrow=open;endSize=8;strokeColor=#FF0000;endFill=1;rounded=0" edge="1" parent="ok139ALbJn9GpQchz6-Z-99" source="ok139ALbJn9GpQchz6-Z-107" target="ok139ALbJn9GpQchz6-Z-113">
          <mxGeometry x="-1" relative="1" as="geometry">
            <mxPoint x="190" y="305" as="targetPoint" />
          </mxGeometry>
        </mxCell>
        <mxCell id="ok139ALbJn9GpQchz6-Z-110" value="" style="endArrow=open;strokeColor=#FF0000;endFill=1;rounded=0;edgeStyle=orthogonalEdgeStyle;" edge="1" parent="ok139ALbJn9GpQchz6-Z-99" source="ok139ALbJn9GpQchz6-Z-103" target="ok139ALbJn9GpQchz6-Z-107">
          <mxGeometry relative="1" as="geometry" />
        </mxCell>
        <mxCell id="ok139ALbJn9GpQchz6-Z-111" value="" style="shape=line;strokeWidth=6;strokeColor=#ff0000;rotation=90" vertex="1" parent="ok139ALbJn9GpQchz6-Z-99">
          <mxGeometry x="130" y="127.5" width="50" height="15" as="geometry" />
        </mxCell>
        <mxCell id="ok139ALbJn9GpQchz6-Z-112" value="" style="edgeStyle=elbowEdgeStyle;elbow=horizontal;verticalAlign=bottom;endArrow=open;endSize=8;strokeColor=#FF0000;endFill=1;rounded=0" edge="1" parent="ok139ALbJn9GpQchz6-Z-99" source="ok139ALbJn9GpQchz6-Z-111" target="ok139ALbJn9GpQchz6-Z-102">
          <mxGeometry x="130" y="90" as="geometry">
            <mxPoint x="230" y="140" as="targetPoint" />
          </mxGeometry>
        </mxCell>
        <mxCell id="ok139ALbJn9GpQchz6-Z-113" value="dispatch&#xa;command&#xa;worker thread" style="" vertex="1" parent="ok139ALbJn9GpQchz6-Z-99">
          <mxGeometry x="140" y="325" width="110" height="50" as="geometry" />
        </mxCell>
        <mxCell id="ok139ALbJn9GpQchz6-Z-114" value="critical&#xa;section" style="shape=note;whiteSpace=wrap;size=17" vertex="1" parent="ok139ALbJn9GpQchz6-Z-99">
          <mxGeometry x="105" y="490" width="100" height="50" as="geometry" />
        </mxCell>
        <mxCell id="ok139ALbJn9GpQchz6-Z-115" value="" style="endArrow=none;strokeColor=#FF0000;endFill=0;rounded=0;dashed=1;edgeStyle=orthogonalEdgeStyle;" edge="1" parent="ok139ALbJn9GpQchz6-Z-99" source="ok139ALbJn9GpQchz6-Z-105" target="ok139ALbJn9GpQchz6-Z-114">
          <mxGeometry relative="1" as="geometry" />
        </mxCell>
        <mxCell id="ok139ALbJn9GpQchz6-Z-116" value="" style="whiteSpace=wrap;strokeColor=#FF0000;fillColor=#FF0000" vertex="1" parent="ok139ALbJn9GpQchz6-Z-99">
          <mxGeometry x="245" y="395" width="5" height="45" as="geometry" />
        </mxCell>
        <mxCell id="ok139ALbJn9GpQchz6-Z-117" value="" style="edgeStyle=elbowEdgeStyle;elbow=horizontal;entryX=0;entryY=0.5;strokeColor=#FF0000;endArrow=open;endFill=1;rounded=0" edge="1" parent="ok139ALbJn9GpQchz6-Z-99" source="ok139ALbJn9GpQchz6-Z-113" target="ok139ALbJn9GpQchz6-Z-116">
          <mxGeometry width="100" height="100" relative="1" as="geometry">
            <mxPoint x="60" y="480" as="sourcePoint" />
            <mxPoint x="160" y="380" as="targetPoint" />
            <Array as="points">
              <mxPoint x="195" y="400" />
            </Array>
          </mxGeometry>
        </mxCell>
        <mxCell id="ok139ALbJn9GpQchz6-Z-124" value="" style="endArrow=open;strokeColor=#FF0000;endFill=1;rounded=0;edgeStyle=orthogonalEdgeStyle;" edge="1" parent="1" source="ok139ALbJn9GpQchz6-Z-96" target="ok139ALbJn9GpQchz6-Z-105">
          <mxGeometry relative="1" as="geometry" />
        </mxCell>
        <mxCell id="ok139ALbJn9GpQchz6-Z-125" value="支付API" style="swimlane;whiteSpace=wrap" vertex="1" parent="1">
          <mxGeometry x="860" y="-4270" width="170" height="570" as="geometry" />
        </mxCell>
        <mxCell id="ok139ALbJn9GpQchz6-Z-126" value="process&#xa;command" style="" vertex="1" parent="ok139ALbJn9GpQchz6-Z-125">
          <mxGeometry x="90" y="405" width="110" height="50" as="geometry" />
        </mxCell>
        <mxCell id="ok139ALbJn9GpQchz6-Z-127" value="" style="edgeStyle=elbowEdgeStyle;elbow=horizontal;strokeColor=#FF0000;endArrow=open;endFill=1;rounded=0;entryX=0.25;entryY=0.5;entryPerimeter=0" edge="1" parent="ok139ALbJn9GpQchz6-Z-125">
          <mxGeometry width="100" height="100" relative="1" as="geometry">
            <mxPoint x="-30" y="410" as="sourcePoint" />
            <mxPoint x="-120" y="120" as="targetPoint" />
            <Array as="points">
              <mxPoint x="-10" y="135" />
            </Array>
          </mxGeometry>
        </mxCell>
        <mxCell id="ok139ALbJn9GpQchz6-Z-128" value="" style="edgeStyle=none;strokeColor=#FF0000;endArrow=open;endFill=1;rounded=0" edge="1" parent="ok139ALbJn9GpQchz6-Z-125" target="ok139ALbJn9GpQchz6-Z-126">
          <mxGeometry width="100" height="100" relative="1" as="geometry">
            <mxPoint x="-30" y="429.5" as="sourcePoint" />
            <mxPoint x="90" y="429.5" as="targetPoint" />
          </mxGeometry>
        </mxCell>
        <mxCell id="ok139ALbJn9GpQchz6-Z-129" value="" style="ellipse;shape=endState;fillColor=#000000;strokeColor=#ff0000" vertex="1" parent="ok139ALbJn9GpQchz6-Z-125">
          <mxGeometry x="130" y="500" width="30" height="30" as="geometry" />
        </mxCell>
        <mxCell id="ok139ALbJn9GpQchz6-Z-130" value="" style="endArrow=open;strokeColor=#FF0000;endFill=1;rounded=0;edgeStyle=orthogonalEdgeStyle;" edge="1" parent="ok139ALbJn9GpQchz6-Z-125" source="ok139ALbJn9GpQchz6-Z-126" target="ok139ALbJn9GpQchz6-Z-129">
          <mxGeometry relative="1" as="geometry" />
        </mxCell>
        <mxCell id="ok139ALbJn9GpQchz6-Z-131" value="扫块API" style="swimlane;whiteSpace=wrap" vertex="1" parent="1">
          <mxGeometry x="1030" y="-4270" width="170" height="570" as="geometry" />
        </mxCell>
        <mxCell id="ok139ALbJn9GpQchz6-Z-132" value="process&#xa;command" style="" vertex="1" parent="ok139ALbJn9GpQchz6-Z-131">
          <mxGeometry x="90" y="405" width="110" height="50" as="geometry" />
        </mxCell>
        <mxCell id="ok139ALbJn9GpQchz6-Z-133" value="" style="edgeStyle=elbowEdgeStyle;elbow=horizontal;strokeColor=#FF0000;endArrow=open;endFill=1;rounded=0;entryX=0.25;entryY=0.5;entryPerimeter=0" edge="1" parent="ok139ALbJn9GpQchz6-Z-131">
          <mxGeometry width="100" height="100" relative="1" as="geometry">
            <mxPoint x="-30" y="410" as="sourcePoint" />
            <mxPoint x="-120" y="120" as="targetPoint" />
            <Array as="points">
              <mxPoint x="-10" y="135" />
            </Array>
          </mxGeometry>
        </mxCell>
        <mxCell id="ok139ALbJn9GpQchz6-Z-134" value="" style="edgeStyle=none;strokeColor=#FF0000;endArrow=open;endFill=1;rounded=0" edge="1" parent="ok139ALbJn9GpQchz6-Z-131" target="ok139ALbJn9GpQchz6-Z-132">
          <mxGeometry width="100" height="100" relative="1" as="geometry">
            <mxPoint x="-30" y="429.5" as="sourcePoint" />
            <mxPoint x="90" y="429.5" as="targetPoint" />
          </mxGeometry>
        </mxCell>
        <mxCell id="ok139ALbJn9GpQchz6-Z-135" value="" style="ellipse;shape=endState;fillColor=#000000;strokeColor=#ff0000" vertex="1" parent="ok139ALbJn9GpQchz6-Z-131">
          <mxGeometry x="130" y="500" width="30" height="30" as="geometry" />
        </mxCell>
        <mxCell id="ok139ALbJn9GpQchz6-Z-136" value="" style="endArrow=open;strokeColor=#FF0000;endFill=1;rounded=0;edgeStyle=orthogonalEdgeStyle;" edge="1" parent="ok139ALbJn9GpQchz6-Z-131" source="ok139ALbJn9GpQchz6-Z-132" target="ok139ALbJn9GpQchz6-Z-135">
          <mxGeometry relative="1" as="geometry" />
        </mxCell>
      </root>
    </mxGraphModel>
  </diagram>
</mxfile>
